<svg xmlns="http://www.w3.org/2000/svg" width="1080" height="1600" viewBox="0 0 1080 1600" role="img" aria-label="Event check-in QR poster">
  <title>TECHNO BUS 2026 Event Check-in QR</title>
  <desc>Scan to open https://YOUR-DOMAIN.com/checkin/techno-bus-2026-0718</desc>
  <defs>
    <radialGradient id="glow" cx="50%" cy="30%" r="60%">
      <stop offset="0%" stop-color="#39FF14" stop-opacity="0.26"/>
      <stop offset="42%" stop-color="#39FF14" stop-opacity="0.08"/>
      <stop offset="100%" stop-color="#080a0a" stop-opacity="0"/>
    </radialGradient>
    <linearGradient id="panel" x1="0" y1="0" x2="1" y2="1">
      <stop offset="0%" stop-color="#1b1f23"/>
      <stop offset="100%" stop-color="#0b0d0e"/>
    </linearGradient>
    <filter id="softGlow" x="-50%" y="-50%" width="200%" height="200%">
      <feGaussianBlur stdDeviation="18" result="blur"/>
      <feMerge>
        <feMergeNode in="blur"/>
        <feMergeNode in="SourceGraphic"/>
      </feMerge>
    </filter>
  </defs>
  <rect width="1080" height="1600" fill="#080a0a"/>
  <rect width="1080" height="1600" fill="url(#glow)"/>
  <path d="M-80 1180 C210 1080 365 1285 610 1170 C790 1086 910 940 1180 1004" fill="none" stroke="#39FF14" stroke-opacity="0.12" stroke-width="18"/>
  <text x="80" y="130" fill="#39FF14" font-family="Arial, Helvetica, sans-serif" font-size="22" font-weight="700" letter-spacing="8">活動報到 / EVENT CHECK-IN</text>
  <text x="80" y="250" fill="#f5f5f5" font-family="Arial, Helvetica, sans-serif" font-size="86" font-weight="300" letter-spacing="-3">TECHNO</text>
  <text x="80" y="340" fill="#f5f5f5" font-family="Arial, Helvetica, sans-serif" font-size="86" font-weight="300" letter-spacing="-3">BUS 2026</text>
  <text x="80" y="420" fill="#9ca3af" font-family="Arial, Helvetica, sans-serif" font-size="30">掃描 QR code 完成入場報到</text>
  <text x="80" y="466" fill="#9ca3af" font-family="Arial, Helvetica, sans-serif" font-size="25">Scan to check in at the event entrance.</text>

  <rect x="300" y="500" width="480" height="480" rx="42" fill="#39FF14" filter="url(#softGlow)"/>
  <rect x="330" y="530" width="420" height="420" rx="30" fill="#39FF14"/>
  <rect x="409.66" y="609.66" width="12.41" height="12.41" rx="3" fill="#080a0a"/><rect x="422.07" y="609.66" width="12.41" height="12.41" rx="3" fill="#080a0a"/><rect x="434.48" y="609.66" width="12.41" height="12.41" rx="3" fill="#080a0a"/><rect x="446.90" y="609.66" width="12.41" height="12.41" rx="3" fill="#080a0a"/><rect x="459.31" y="609.66" width="12.41" height="12.41" rx="3" fill="#080a0a"/><rect x="471.72" y="609.66" width="12.41" height="12.41" rx="3" fill="#080a0a"/><rect x="484.14" y="609.66" width="12.41" height="12.41" rx="3" fill="#080a0a"/><rect x="521.38" y="609.66" width="12.41" height="12.41" rx="3" fill="#080a0a"/><rect x="546.21" y="609.66" width="12.41" height="12.41" rx="3" fill="#080a0a"/><rect x="583.45" y="609.66" width="12.41" height="12.41" rx="3" fill="#080a0a"/><rect x="608.28" y="609.66" width="12.41" height="12.41" rx="3" fill="#080a0a"/><rect x="620.69" y="609.66" width="12.41" height="12.41" rx="3" fill="#080a0a"/><rect x="633.10" y="609.66" width="12.41" height="12.41" rx="3" fill="#080a0a"/><rect x="645.52" y="609.66" width="12.41" height="12.41" rx="3" fill="#080a0a"/><rect x="657.93" y="609.66" width="12.41" height="12.41" rx="3" fill="#080a0a"/><rect x="670.34" y="609.66" width="12.41" height="12.41" rx="3" fill="#080a0a"/><rect x="682.76" y="609.66" width="12.41" height="12.41" rx="3" fill="#080a0a"/><rect x="409.66" y="622.07" width="12.41" height="12.41" rx="3" fill="#080a0a"/><rect x="484.14" y="622.07" width="12.41" height="12.41" rx="3" fill="#080a0a"/><rect x="521.38" y="622.07" width="12.41" height="12.41" rx="3" fill="#080a0a"/><rect x="533.79" y="622.07" width="12.41" height="12.41" rx="3" fill="#080a0a"/><rect x="546.21" y="622.07" width="12.41" height="12.41" rx="3" fill="#080a0a"/><rect x="558.62" y="622.07" width="12.41" height="12.41" rx="3" fill="#080a0a"/><rect x="583.45" y="622.07" width="12.41" height="12.41" rx="3" fill="#080a0a"/><rect x="608.28" y="622.07" width="12.41" height="12.41" rx="3" fill="#080a0a"/><rect x="682.76" y="622.07" width="12.41" height="12.41" rx="3" fill="#080a0a"/><rect x="409.66" y="634.48" width="12.41" height="12.41" rx="3" fill="#080a0a"/><rect x="434.48" y="634.48" width="12.41" height="12.41" rx="3" fill="#080a0a"/><rect x="446.90" y="634.48" width="12.41" height="12.41" rx="3" fill="#080a0a"/><rect x="459.31" y="634.48" width="12.41" height="12.41" rx="3" fill="#080a0a"/><rect x="484.14" y="634.48" width="12.41" height="12.41" rx="3" fill="#080a0a"/><rect x="508.97" y="634.48" width="12.41" height="12.41" rx="3" fill="#080a0a"/><rect x="558.62" y="634.48" width="12.41" height="12.41" rx="3" fill="#080a0a"/><rect x="583.45" y="634.48" width="12.41" height="12.41" rx="3" fill="#080a0a"/><rect x="608.28" y="634.48" width="12.41" height="12.41" rx="3" fill="#080a0a"/><rect x="633.10" y="634.48" width="12.41" height="12.41" rx="3" fill="#080a0a"/><rect x="645.52" y="634.48" width="12.41" height="12.41" rx="3" fill="#080a0a"/><rect x="657.93" y="634.48" width="12.41" height="12.41" rx="3" fill="#080a0a"/><rect x="682.76" y="634.48" width="12.41" height="12.41" rx="3" fill="#080a0a"/><rect x="409.66" y="646.90" width="12.41" height="12.41" rx="3" fill="#080a0a"/><rect x="434.48" y="646.90" width="12.41" height="12.41" rx="3" fill="#080a0a"/><rect x="446.90" y="646.90" width="12.41" height="12.41" rx="3" fill="#080a0a"/><rect x="459.31" y="646.90" width="12.41" height="12.41" rx="3" fill="#080a0a"/><rect x="484.14" y="646.90" width="12.41" height="12.41" rx="3" fill="#080a0a"/><rect x="521.38" y="646.90" width="12.41" height="12.41" rx="3" fill="#080a0a"/><rect x="533.79" y="646.90" width="12.41" height="12.41" rx="3" fill="#080a0a"/><rect x="546.21" y="646.90" width="12.41" height="12.41" rx="3" fill="#080a0a"/><rect x="583.45" y="646.90" width="12.41" height="12.41" rx="3" fill="#080a0a"/><rect x="608.28" y="646.90" width="12.41" height="12.41" rx="3" fill="#080a0a"/><rect x="633.10" y="646.90" width="12.41" height="12.41" rx="3" fill="#080a0a"/><rect x="645.52" y="646.90" width="12.41" height="12.41" rx="3" fill="#080a0a"/><rect x="657.93" y="646.90" width="12.41" height="12.41" rx="3" fill="#080a0a"/><rect x="682.76" y="646.90" width="12.41" height="12.41" rx="3" fill="#080a0a"/><rect x="409.66" y="659.31" width="12.41" height="12.41" rx="3" fill="#080a0a"/><rect x="434.48" y="659.31" width="12.41" height="12.41" rx="3" fill="#080a0a"/><rect x="446.90" y="659.31" width="12.41" height="12.41" rx="3" fill="#080a0a"/><rect x="459.31" y="659.31" width="12.41" height="12.41" rx="3" fill="#080a0a"/><rect x="484.14" y="659.31" width="12.41" height="12.41" rx="3" fill="#080a0a"/><rect x="508.97" y="659.31" width="12.41" height="12.41" rx="3" fill="#080a0a"/><rect x="533.79" y="659.31" width="12.41" height="12.41" rx="3" fill="#080a0a"/><rect x="546.21" y="659.31" width="12.41" height="12.41" rx="3" fill="#080a0a"/><rect x="558.62" y="659.31" width="12.41" height="12.41" rx="3" fill="#080a0a"/><rect x="583.45" y="659.31" width="12.41" height="12.41" rx="3" fill="#080a0a"/><rect x="608.28" y="659.31" width="12.41" height="12.41" rx="3" fill="#080a0a"/><rect x="633.10" y="659.31" width="12.41" height="12.41" rx="3" fill="#080a0a"/><rect x="645.52" y="659.31" width="12.41" height="12.41" rx="3" fill="#080a0a"/><rect x="657.93" y="659.31" width="12.41" height="12.41" rx="3" fill="#080a0a"/><rect x="682.76" y="659.31" width="12.41" height="12.41" rx="3" fill="#080a0a"/><rect x="409.66" y="671.72" width="12.41" height="12.41" rx="3" fill="#080a0a"/><rect x="484.14" y="671.72" width="12.41" height="12.41" rx="3" fill="#080a0a"/><rect x="508.97" y="671.72" width="12.41" height="12.41" rx="3" fill="#080a0a"/><rect x="533.79" y="671.72" width="12.41" height="12.41" rx="3" fill="#080a0a"/><rect x="558.62" y="671.72" width="12.41" height="12.41" rx="3" fill="#080a0a"/><rect x="583.45" y="671.72" width="12.41" height="12.41" rx="3" fill="#080a0a"/><rect x="608.28" y="671.72" width="12.41" height="12.41" rx="3" fill="#080a0a"/><rect x="682.76" y="671.72" width="12.41" height="12.41" rx="3" fill="#080a0a"/><rect x="409.66" y="684.14" width="12.41" height="12.41" rx="3" fill="#080a0a"/><rect x="422.07" y="684.14" width="12.41" height="12.41" rx="3" fill="#080a0a"/><rect x="434.48" y="684.14" width="12.41" height="12.41" rx="3" fill="#080a0a"/><rect x="446.90" y="684.14" width="12.41" height="12.41" rx="3" fill="#080a0a"/><rect x="459.31" y="684.14" width="12.41" height="12.41" rx="3" fill="#080a0a"/><rect x="471.72" y="684.14" width="12.41" height="12.41" rx="3" fill="#080a0a"/><rect x="484.14" y="684.14" width="12.41" height="12.41" rx="3" fill="#080a0a"/><rect x="508.97" y="684.14" width="12.41" height="12.41" rx="3" fill="#080a0a"/><rect x="533.79" y="684.14" width="12.41" height="12.41" rx="3" fill="#080a0a"/><rect x="558.62" y="684.14" width="12.41" height="12.41" rx="3" fill="#080a0a"/><rect x="583.45" y="684.14" width="12.41" height="12.41" rx="3" fill="#080a0a"/><rect x="608.28" y="684.14" width="12.41" height="12.41" rx="3" fill="#080a0a"/><rect x="620.69" y="684.14" width="12.41" height="12.41" rx="3" fill="#080a0a"/><rect x="633.10" y="684.14" width="12.41" height="12.41" rx="3" fill="#080a0a"/><rect x="645.52" y="684.14" width="12.41" height="12.41" rx="3" fill="#080a0a"/><rect x="657.93" y="684.14" width="12.41" height="12.41" rx="3" fill="#080a0a"/><rect x="670.34" y="684.14" width="12.41" height="12.41" rx="3" fill="#080a0a"/><rect x="682.76" y="684.14" width="12.41" height="12.41" rx="3" fill="#080a0a"/><rect x="508.97" y="696.55" width="12.41" height="12.41" rx="3" fill="#080a0a"/><rect x="521.38" y="696.55" width="12.41" height="12.41" rx="3" fill="#080a0a"/><rect x="546.21" y="696.55" width="12.41" height="12.41" rx="3" fill="#080a0a"/><rect x="409.66" y="708.97" width="12.41" height="12.41" rx="3" fill="#080a0a"/><rect x="434.48" y="708.97" width="12.41" height="12.41" rx="3" fill="#080a0a"/><rect x="459.31" y="708.97" width="12.41" height="12.41" rx="3" fill="#080a0a"/><rect x="471.72" y="708.97" width="12.41" height="12.41" rx="3" fill="#080a0a"/><rect x="484.14" y="708.97" width="12.41" height="12.41" rx="3" fill="#080a0a"/><rect x="496.55" y="708.97" width="12.41" height="12.41" rx="3" fill="#080a0a"/><rect x="508.97" y="708.97" width="12.41" height="12.41" rx="3" fill="#080a0a"/><rect x="546.21" y="708.97" width="12.41" height="12.41" rx="3" fill="#080a0a"/><rect x="558.62" y="708.97" width="12.41" height="12.41" rx="3" fill="#080a0a"/><rect x="571.03" y="708.97" width="12.41" height="12.41" rx="3" fill="#080a0a"/><rect x="583.45" y="708.97" width="12.41" height="12.41" rx="3" fill="#080a0a"/><rect x="608.28" y="708.97" width="12.41" height="12.41" rx="3" fill="#080a0a"/><rect x="633.10" y="708.97" width="12.41" height="12.41" rx="3" fill="#080a0a"/><rect x="645.52" y="708.97" width="12.41" height="12.41" rx="3" fill="#080a0a"/><rect x="670.34" y="708.97" width="12.41" height="12.41" rx="3" fill="#080a0a"/><rect x="434.48" y="721.38" width="12.41" height="12.41" rx="3" fill="#080a0a"/><rect x="446.90" y="721.38" width="12.41" height="12.41" rx="3" fill="#080a0a"/><rect x="508.97" y="721.38" width="12.41" height="12.41" rx="3" fill="#080a0a"/><rect x="521.38" y="721.38" width="12.41" height="12.41" rx="3" fill="#080a0a"/><rect x="533.79" y="721.38" width="12.41" height="12.41" rx="3" fill="#080a0a"/><rect x="583.45" y="721.38" width="12.41" height="12.41" rx="3" fill="#080a0a"/><rect x="595.86" y="721.38" width="12.41" height="12.41" rx="3" fill="#080a0a"/><rect x="608.28" y="721.38" width="12.41" height="12.41" rx="3" fill="#080a0a"/><rect x="657.93" y="721.38" width="12.41" height="12.41" rx="3" fill="#080a0a"/><rect x="682.76" y="721.38" width="12.41" height="12.41" rx="3" fill="#080a0a"/><rect x="409.66" y="733.79" width="12.41" height="12.41" rx="3" fill="#080a0a"/><rect x="422.07" y="733.79" width="12.41" height="12.41" rx="3" fill="#080a0a"/><rect x="434.48" y="733.79" width="12.41" height="12.41" rx="3" fill="#080a0a"/><rect x="459.31" y="733.79" width="12.41" height="12.41" rx="3" fill="#080a0a"/><rect x="484.14" y="733.79" width="12.41" height="12.41" rx="3" fill="#080a0a"/><rect x="496.55" y="733.79" width="12.41" height="12.41" rx="3" fill="#080a0a"/><rect x="508.97" y="733.79" width="12.41" height="12.41" rx="3" fill="#080a0a"/><rect x="533.79" y="733.79" width="12.41" height="12.41" rx="3" fill="#080a0a"/><rect x="546.21" y="733.79" width="12.41" height="12.41" rx="3" fill="#080a0a"/><rect x="558.62" y="733.79" width="12.41" height="12.41" rx="3" fill="#080a0a"/><rect x="583.45" y="733.79" width="12.41" height="12.41" rx="3" fill="#080a0a"/><rect x="608.28" y="733.79" width="12.41" height="12.41" rx="3" fill="#080a0a"/><rect x="620.69" y="733.79" width="12.41" height="12.41" rx="3" fill="#080a0a"/><rect x="633.10" y="733.79" width="12.41" height="12.41" rx="3" fill="#080a0a"/><rect x="657.93" y="733.79" width="12.41" height="12.41" rx="3" fill="#080a0a"/><rect x="670.34" y="733.79" width="12.41" height="12.41" rx="3" fill="#080a0a"/><rect x="682.76" y="733.79" width="12.41" height="12.41" rx="3" fill="#080a0a"/><rect x="422.07" y="746.21" width="12.41" height="12.41" rx="3" fill="#080a0a"/><rect x="471.72" y="746.21" width="12.41" height="12.41" rx="3" fill="#080a0a"/><rect x="508.97" y="746.21" width="12.41" height="12.41" rx="3" fill="#080a0a"/><rect x="558.62" y="746.21" width="12.41" height="12.41" rx="3" fill="#080a0a"/><rect x="595.86" y="746.21" width="12.41" height="12.41" rx="3" fill="#080a0a"/><rect x="633.10" y="746.21" width="12.41" height="12.41" rx="3" fill="#080a0a"/><rect x="670.34" y="746.21" width="12.41" height="12.41" rx="3" fill="#080a0a"/><rect x="409.66" y="758.62" width="12.41" height="12.41" rx="3" fill="#080a0a"/><rect x="422.07" y="758.62" width="12.41" height="12.41" rx="3" fill="#080a0a"/><rect x="434.48" y="758.62" width="12.41" height="12.41" rx="3" fill="#080a0a"/><rect x="459.31" y="758.62" width="12.41" height="12.41" rx="3" fill="#080a0a"/><rect x="471.72" y="758.62" width="12.41" height="12.41" rx="3" fill="#080a0a"/><rect x="484.14" y="758.62" width="12.41" height="12.41" rx="3" fill="#080a0a"/><rect x="508.97" y="758.62" width="12.41" height="12.41" rx="3" fill="#080a0a"/><rect x="521.38" y="758.62" width="12.41" height="12.41" rx="3" fill="#080a0a"/><rect x="533.79" y="758.62" width="12.41" height="12.41" rx="3" fill="#080a0a"/><rect x="558.62" y="758.62" width="12.41" height="12.41" rx="3" fill="#080a0a"/><rect x="571.03" y="758.62" width="12.41" height="12.41" rx="3" fill="#080a0a"/><rect x="583.45" y="758.62" width="12.41" height="12.41" rx="3" fill="#080a0a"/><rect x="608.28" y="758.62" width="12.41" height="12.41" rx="3" fill="#080a0a"/><rect x="620.69" y="758.62" width="12.41" height="12.41" rx="3" fill="#080a0a"/><rect x="633.10" y="758.62" width="12.41" height="12.41" rx="3" fill="#080a0a"/><rect x="657.93" y="758.62" width="12.41" height="12.41" rx="3" fill="#080a0a"/><rect x="670.34" y="758.62" width="12.41" height="12.41" rx="3" fill="#080a0a"/><rect x="682.76" y="758.62" width="12.41" height="12.41" rx="3" fill="#080a0a"/><rect x="434.48" y="771.03" width="12.41" height="12.41" rx="3" fill="#080a0a"/><rect x="484.14" y="771.03" width="12.41" height="12.41" rx="3" fill="#080a0a"/><rect x="533.79" y="771.03" width="12.41" height="12.41" rx="3" fill="#080a0a"/><rect x="583.45" y="771.03" width="12.41" height="12.41" rx="3" fill="#080a0a"/><rect x="633.10" y="771.03" width="12.41" height="12.41" rx="3" fill="#080a0a"/><rect x="409.66" y="783.45" width="12.41" height="12.41" rx="3" fill="#080a0a"/><rect x="422.07" y="783.45" width="12.41" height="12.41" rx="3" fill="#080a0a"/><rect x="434.48" y="783.45" width="12.41" height="12.41" rx="3" fill="#080a0a"/><rect x="446.90" y="783.45" width="12.41" height="12.41" rx="3" fill="#080a0a"/><rect x="459.31" y="783.45" width="12.41" height="12.41" rx="3" fill="#080a0a"/><rect x="471.72" y="783.45" width="12.41" height="12.41" rx="3" fill="#080a0a"/><rect x="484.14" y="783.45" width="12.41" height="12.41" rx="3" fill="#080a0a"/><rect x="508.97" y="783.45" width="12.41" height="12.41" rx="3" fill="#080a0a"/><rect x="533.79" y="783.45" width="12.41" height="12.41" rx="3" fill="#080a0a"/><rect x="558.62" y="783.45" width="12.41" height="12.41" rx="3" fill="#080a0a"/><rect x="583.45" y="783.45" width="12.41" height="12.41" rx="3" fill="#080a0a"/><rect x="595.86" y="783.45" width="12.41" height="12.41" rx="3" fill="#080a0a"/><rect x="608.28" y="783.45" width="12.41" height="12.41" rx="3" fill="#080a0a"/><rect x="620.69" y="783.45" width="12.41" height="12.41" rx="3" fill="#080a0a"/><rect x="657.93" y="783.45" width="12.41" height="12.41" rx="3" fill="#080a0a"/><rect x="670.34" y="783.45" width="12.41" height="12.41" rx="3" fill="#080a0a"/><rect x="682.76" y="783.45" width="12.41" height="12.41" rx="3" fill="#080a0a"/><rect x="409.66" y="795.86" width="12.41" height="12.41" rx="3" fill="#080a0a"/><rect x="484.14" y="795.86" width="12.41" height="12.41" rx="3" fill="#080a0a"/><rect x="508.97" y="795.86" width="12.41" height="12.41" rx="3" fill="#080a0a"/><rect x="521.38" y="795.86" width="12.41" height="12.41" rx="3" fill="#080a0a"/><rect x="546.21" y="795.86" width="12.41" height="12.41" rx="3" fill="#080a0a"/><rect x="583.45" y="795.86" width="12.41" height="12.41" rx="3" fill="#080a0a"/><rect x="620.69" y="795.86" width="12.41" height="12.41" rx="3" fill="#080a0a"/><rect x="633.10" y="795.86" width="12.41" height="12.41" rx="3" fill="#080a0a"/><rect x="657.93" y="795.86" width="12.41" height="12.41" rx="3" fill="#080a0a"/><rect x="409.66" y="808.28" width="12.41" height="12.41" rx="3" fill="#080a0a"/><rect x="434.48" y="808.28" width="12.41" height="12.41" rx="3" fill="#080a0a"/><rect x="446.90" y="808.28" width="12.41" height="12.41" rx="3" fill="#080a0a"/><rect x="459.31" y="808.28" width="12.41" height="12.41" rx="3" fill="#080a0a"/><rect x="484.14" y="808.28" width="12.41" height="12.41" rx="3" fill="#080a0a"/><rect x="508.97" y="808.28" width="12.41" height="12.41" rx="3" fill="#080a0a"/><rect x="533.79" y="808.28" width="12.41" height="12.41" rx="3" fill="#080a0a"/><rect x="546.21" y="808.28" width="12.41" height="12.41" rx="3" fill="#080a0a"/><rect x="558.62" y="808.28" width="12.41" height="12.41" rx="3" fill="#080a0a"/><rect x="583.45" y="808.28" width="12.41" height="12.41" rx="3" fill="#080a0a"/><rect x="608.28" y="808.28" width="12.41" height="12.41" rx="3" fill="#080a0a"/><rect x="633.10" y="808.28" width="12.41" height="12.41" rx="3" fill="#080a0a"/><rect x="645.52" y="808.28" width="12.41" height="12.41" rx="3" fill="#080a0a"/><rect x="657.93" y="808.28" width="12.41" height="12.41" rx="3" fill="#080a0a"/><rect x="682.76" y="808.28" width="12.41" height="12.41" rx="3" fill="#080a0a"/><rect x="409.66" y="820.69" width="12.41" height="12.41" rx="3" fill="#080a0a"/><rect x="434.48" y="820.69" width="12.41" height="12.41" rx="3" fill="#080a0a"/><rect x="446.90" y="820.69" width="12.41" height="12.41" rx="3" fill="#080a0a"/><rect x="459.31" y="820.69" width="12.41" height="12.41" rx="3" fill="#080a0a"/><rect x="484.14" y="820.69" width="12.41" height="12.41" rx="3" fill="#080a0a"/><rect x="533.79" y="820.69" width="12.41" height="12.41" rx="3" fill="#080a0a"/><rect x="583.45" y="820.69" width="12.41" height="12.41" rx="3" fill="#080a0a"/><rect x="608.28" y="820.69" width="12.41" height="12.41" rx="3" fill="#080a0a"/><rect x="633.10" y="820.69" width="12.41" height="12.41" rx="3" fill="#080a0a"/><rect x="657.93" y="820.69" width="12.41" height="12.41" rx="3" fill="#080a0a"/><rect x="682.76" y="820.69" width="12.41" height="12.41" rx="3" fill="#080a0a"/><rect x="409.66" y="833.10" width="12.41" height="12.41" rx="3" fill="#080a0a"/><rect x="434.48" y="833.10" width="12.41" height="12.41" rx="3" fill="#080a0a"/><rect x="446.90" y="833.10" width="12.41" height="12.41" rx="3" fill="#080a0a"/><rect x="459.31" y="833.10" width="12.41" height="12.41" rx="3" fill="#080a0a"/><rect x="484.14" y="833.10" width="12.41" height="12.41" rx="3" fill="#080a0a"/><rect x="508.97" y="833.10" width="12.41" height="12.41" rx="3" fill="#080a0a"/><rect x="521.38" y="833.10" width="12.41" height="12.41" rx="3" fill="#080a0a"/><rect x="533.79" y="833.10" width="12.41" height="12.41" rx="3" fill="#080a0a"/><rect x="546.21" y="833.10" width="12.41" height="12.41" rx="3" fill="#080a0a"/><rect x="558.62" y="833.10" width="12.41" height="12.41" rx="3" fill="#080a0a"/><rect x="583.45" y="833.10" width="12.41" height="12.41" rx="3" fill="#080a0a"/><rect x="608.28" y="833.10" width="12.41" height="12.41" rx="3" fill="#080a0a"/><rect x="633.10" y="833.10" width="12.41" height="12.41" rx="3" fill="#080a0a"/><rect x="645.52" y="833.10" width="12.41" height="12.41" rx="3" fill="#080a0a"/><rect x="657.93" y="833.10" width="12.41" height="12.41" rx="3" fill="#080a0a"/><rect x="682.76" y="833.10" width="12.41" height="12.41" rx="3" fill="#080a0a"/><rect x="409.66" y="845.52" width="12.41" height="12.41" rx="3" fill="#080a0a"/><rect x="484.14" y="845.52" width="12.41" height="12.41" rx="3" fill="#080a0a"/><rect x="546.21" y="845.52" width="12.41" height="12.41" rx="3" fill="#080a0a"/><rect x="583.45" y="845.52" width="12.41" height="12.41" rx="3" fill="#080a0a"/><rect x="682.76" y="845.52" width="12.41" height="12.41" rx="3" fill="#080a0a"/><rect x="409.66" y="857.93" width="12.41" height="12.41" rx="3" fill="#080a0a"/><rect x="422.07" y="857.93" width="12.41" height="12.41" rx="3" fill="#080a0a"/><rect x="434.48" y="857.93" width="12.41" height="12.41" rx="3" fill="#080a0a"/><rect x="446.90" y="857.93" width="12.41" height="12.41" rx="3" fill="#080a0a"/><rect x="459.31" y="857.93" width="12.41" height="12.41" rx="3" fill="#080a0a"/><rect x="471.72" y="857.93" width="12.41" height="12.41" rx="3" fill="#080a0a"/><rect x="484.14" y="857.93" width="12.41" height="12.41" rx="3" fill="#080a0a"/><rect x="508.97" y="857.93" width="12.41" height="12.41" rx="3" fill="#080a0a"/><rect x="521.38" y="857.93" width="12.41" height="12.41" rx="3" fill="#080a0a"/><rect x="546.21" y="857.93" width="12.41" height="12.41" rx="3" fill="#080a0a"/><rect x="558.62" y="857.93" width="12.41" height="12.41" rx="3" fill="#080a0a"/><rect x="583.45" y="857.93" width="12.41" height="12.41" rx="3" fill="#080a0a"/><rect x="608.28" y="857.93" width="12.41" height="12.41" rx="3" fill="#080a0a"/><rect x="620.69" y="857.93" width="12.41" height="12.41" rx="3" fill="#080a0a"/><rect x="633.10" y="857.93" width="12.41" height="12.41" rx="3" fill="#080a0a"/><rect x="645.52" y="857.93" width="12.41" height="12.41" rx="3" fill="#080a0a"/><rect x="657.93" y="857.93" width="12.41" height="12.41" rx="3" fill="#080a0a"/><rect x="670.34" y="857.93" width="12.41" height="12.41" rx="3" fill="#080a0a"/><rect x="682.76" y="857.93" width="12.41" height="12.41" rx="3" fill="#080a0a"/>

  <rect x="120" y="1060" width="840" height="180" rx="34" fill="url(#panel)" stroke="#39FF14" stroke-opacity="0.22"/>
  <text x="170" y="1130" fill="#ffffff" font-family="Arial, Helvetica, sans-serif" font-size="34" font-weight="700">請輸入 Email 或中文姓名完成報到</text>
  <text x="170" y="1185" fill="#9ca3af" font-family="Arial, Helvetica, sans-serif" font-size="25">Enter your email or Chinese name to check in.</text>

  <rect x="120" y="1308" width="840" height="92" rx="46" fill="#39FF14"/>
  <text x="540" y="1366" text-anchor="middle" fill="#080a0a" font-family="Arial, Helvetica, sans-serif" font-size="30" font-weight="800" letter-spacing="2">CHECK IN NOW</text>

  <text x="80" y="1500" fill="#6b7280" font-family="Arial, Helvetica, sans-serif" font-size="22">URL placeholder: https://YOUR-DOMAIN.com/checkin/techno-bus-2026-0718</text>
  <text x="80" y="1540" fill="#6b7280" font-family="Arial, Helvetica, sans-serif" font-size="22">Event ID: techno-bus-2026-0718</text>
</svg>
