<svg xmlns="http://www.w3.org/2000/svg" width="522" height="522" viewBox="0 0 522 522" role="img" aria-label="QR code for https://YOUR-DOMAIN.com/checkin/techno-bus-2026-0718">
  <title>Check-in QR Code</title>
  <desc>https://YOUR-DOMAIN.com/checkin/techno-bus-2026-0718</desc>
  <rect width="100%" height="100%" rx="28" fill="#39FF14"/>
  <rect x="72" y="72" width="18" height="18" rx="3" fill="#080a0a"/><rect x="90" y="72" width="18" height="18" rx="3" fill="#080a0a"/><rect x="108" y="72" width="18" height="18" rx="3" fill="#080a0a"/><rect x="126" y="72" width="18" height="18" rx="3" fill="#080a0a"/><rect x="144" y="72" width="18" height="18" rx="3" fill="#080a0a"/><rect x="162" y="72" width="18" height="18" rx="3" fill="#080a0a"/><rect x="180" y="72" width="18" height="18" rx="3" fill="#080a0a"/><rect x="234" y="72" width="18" height="18" rx="3" fill="#080a0a"/><rect x="270" y="72" width="18" height="18" rx="3" fill="#080a0a"/><rect x="324" y="72" width="18" height="18" rx="3" fill="#080a0a"/><rect x="360" y="72" width="18" height="18" rx="3" fill="#080a0a"/><rect x="378" y="72" width="18" height="18" rx="3" fill="#080a0a"/><rect x="396" y="72" width="18" height="18" rx="3" fill="#080a0a"/><rect x="414" y="72" width="18" height="18" rx="3" fill="#080a0a"/><rect x="432" y="72" width="18" height="18" rx="3" fill="#080a0a"/><rect x="450" y="72" width="18" height="18" rx="3" fill="#080a0a"/><rect x="468" y="72" width="18" height="18" rx="3" fill="#080a0a"/><rect x="72" y="90" width="18" height="18" rx="3" fill="#080a0a"/><rect x="180" y="90" width="18" height="18" rx="3" fill="#080a0a"/><rect x="234" y="90" width="18" height="18" rx="3" fill="#080a0a"/><rect x="252" y="90" width="18" height="18" rx="3" fill="#080a0a"/><rect x="270" y="90" width="18" height="18" rx="3" fill="#080a0a"/><rect x="288" y="90" width="18" height="18" rx="3" fill="#080a0a"/><rect x="324" y="90" width="18" height="18" rx="3" fill="#080a0a"/><rect x="360" y="90" width="18" height="18" rx="3" fill="#080a0a"/><rect x="468" y="90" width="18" height="18" rx="3" fill="#080a0a"/><rect x="72" y="108" width="18" height="18" rx="3" fill="#080a0a"/><rect x="108" y="108" width="18" height="18" rx="3" fill="#080a0a"/><rect x="126" y="108" width="18" height="18" rx="3" fill="#080a0a"/><rect x="144" y="108" width="18" height="18" rx="3" fill="#080a0a"/><rect x="180" y="108" width="18" height="18" rx="3" fill="#080a0a"/><rect x="216" y="108" width="18" height="18" rx="3" fill="#080a0a"/><rect x="288" y="108" width="18" height="18" rx="3" fill="#080a0a"/><rect x="324" y="108" width="18" height="18" rx="3" fill="#080a0a"/><rect x="360" y="108" width="18" height="18" rx="3" fill="#080a0a"/><rect x="396" y="108" width="18" height="18" rx="3" fill="#080a0a"/><rect x="414" y="108" width="18" height="18" rx="3" fill="#080a0a"/><rect x="432" y="108" width="18" height="18" rx="3" fill="#080a0a"/><rect x="468" y="108" width="18" height="18" rx="3" fill="#080a0a"/><rect x="72" y="126" width="18" height="18" rx="3" fill="#080a0a"/><rect x="108" y="126" width="18" height="18" rx="3" fill="#080a0a"/><rect x="126" y="126" width="18" height="18" rx="3" fill="#080a0a"/><rect x="144" y="126" width="18" height="18" rx="3" fill="#080a0a"/><rect x="180" y="126" width="18" height="18" rx="3" fill="#080a0a"/><rect x="234" y="126" width="18" height="18" rx="3" fill="#080a0a"/><rect x="252" y="126" width="18" height="18" rx="3" fill="#080a0a"/><rect x="270" y="126" width="18" height="18" rx="3" fill="#080a0a"/><rect x="324" y="126" width="18" height="18" rx="3" fill="#080a0a"/><rect x="360" y="126" width="18" height="18" rx="3" fill="#080a0a"/><rect x="396" y="126" width="18" height="18" rx="3" fill="#080a0a"/><rect x="414" y="126" width="18" height="18" rx="3" fill="#080a0a"/><rect x="432" y="126" width="18" height="18" rx="3" fill="#080a0a"/><rect x="468" y="126" width="18" height="18" rx="3" fill="#080a0a"/><rect x="72" y="144" width="18" height="18" rx="3" fill="#080a0a"/><rect x="108" y="144" width="18" height="18" rx="3" fill="#080a0a"/><rect x="126" y="144" width="18" height="18" rx="3" fill="#080a0a"/><rect x="144" y="144" width="18" height="18" rx="3" fill="#080a0a"/><rect x="180" y="144" width="18" height="18" rx="3" fill="#080a0a"/><rect x="216" y="144" width="18" height="18" rx="3" fill="#080a0a"/><rect x="252" y="144" width="18" height="18" rx="3" fill="#080a0a"/><rect x="270" y="144" width="18" height="18" rx="3" fill="#080a0a"/><rect x="288" y="144" width="18" height="18" rx="3" fill="#080a0a"/><rect x="324" y="144" width="18" height="18" rx="3" fill="#080a0a"/><rect x="360" y="144" width="18" height="18" rx="3" fill="#080a0a"/><rect x="396" y="144" width="18" height="18" rx="3" fill="#080a0a"/><rect x="414" y="144" width="18" height="18" rx="3" fill="#080a0a"/><rect x="432" y="144" width="18" height="18" rx="3" fill="#080a0a"/><rect x="468" y="144" width="18" height="18" rx="3" fill="#080a0a"/><rect x="72" y="162" width="18" height="18" rx="3" fill="#080a0a"/><rect x="180" y="162" width="18" height="18" rx="3" fill="#080a0a"/><rect x="216" y="162" width="18" height="18" rx="3" fill="#080a0a"/><rect x="252" y="162" width="18" height="18" rx="3" fill="#080a0a"/><rect x="288" y="162" width="18" height="18" rx="3" fill="#080a0a"/><rect x="324" y="162" width="18" height="18" rx="3" fill="#080a0a"/><rect x="360" y="162" width="18" height="18" rx="3" fill="#080a0a"/><rect x="468" y="162" width="18" height="18" rx="3" fill="#080a0a"/><rect x="72" y="180" width="18" height="18" rx="3" fill="#080a0a"/><rect x="90" y="180" width="18" height="18" rx="3" fill="#080a0a"/><rect x="108" y="180" width="18" height="18" rx="3" fill="#080a0a"/><rect x="126" y="180" width="18" height="18" rx="3" fill="#080a0a"/><rect x="144" y="180" width="18" height="18" rx="3" fill="#080a0a"/><rect x="162" y="180" width="18" height="18" rx="3" fill="#080a0a"/><rect x="180" y="180" width="18" height="18" rx="3" fill="#080a0a"/><rect x="216" y="180" width="18" height="18" rx="3" fill="#080a0a"/><rect x="252" y="180" width="18" height="18" rx="3" fill="#080a0a"/><rect x="288" y="180" width="18" height="18" rx="3" fill="#080a0a"/><rect x="324" y="180" width="18" height="18" rx="3" fill="#080a0a"/><rect x="360" y="180" width="18" height="18" rx="3" fill="#080a0a"/><rect x="378" y="180" width="18" height="18" rx="3" fill="#080a0a"/><rect x="396" y="180" width="18" height="18" rx="3" fill="#080a0a"/><rect x="414" y="180" width="18" height="18" rx="3" fill="#080a0a"/><rect x="432" y="180" width="18" height="18" rx="3" fill="#080a0a"/><rect x="450" y="180" width="18" height="18" rx="3" fill="#080a0a"/><rect x="468" y="180" width="18" height="18" rx="3" fill="#080a0a"/><rect x="216" y="198" width="18" height="18" rx="3" fill="#080a0a"/><rect x="234" y="198" width="18" height="18" rx="3" fill="#080a0a"/><rect x="270" y="198" width="18" height="18" rx="3" fill="#080a0a"/><rect x="72" y="216" width="18" height="18" rx="3" fill="#080a0a"/><rect x="108" y="216" width="18" height="18" rx="3" fill="#080a0a"/><rect x="144" y="216" width="18" height="18" rx="3" fill="#080a0a"/><rect x="162" y="216" width="18" height="18" rx="3" fill="#080a0a"/><rect x="180" y="216" width="18" height="18" rx="3" fill="#080a0a"/><rect x="198" y="216" width="18" height="18" rx="3" fill="#080a0a"/><rect x="216" y="216" width="18" height="18" rx="3" fill="#080a0a"/><rect x="270" y="216" width="18" height="18" rx="3" fill="#080a0a"/><rect x="288" y="216" width="18" height="18" rx="3" fill="#080a0a"/><rect x="306" y="216" width="18" height="18" rx="3" fill="#080a0a"/><rect x="324" y="216" width="18" height="18" rx="3" fill="#080a0a"/><rect x="360" y="216" width="18" height="18" rx="3" fill="#080a0a"/><rect x="396" y="216" width="18" height="18" rx="3" fill="#080a0a"/><rect x="414" y="216" width="18" height="18" rx="3" fill="#080a0a"/><rect x="450" y="216" width="18" height="18" rx="3" fill="#080a0a"/><rect x="108" y="234" width="18" height="18" rx="3" fill="#080a0a"/><rect x="126" y="234" width="18" height="18" rx="3" fill="#080a0a"/><rect x="216" y="234" width="18" height="18" rx="3" fill="#080a0a"/><rect x="234" y="234" width="18" height="18" rx="3" fill="#080a0a"/><rect x="252" y="234" width="18" height="18" rx="3" fill="#080a0a"/><rect x="324" y="234" width="18" height="18" rx="3" fill="#080a0a"/><rect x="342" y="234" width="18" height="18" rx="3" fill="#080a0a"/><rect x="360" y="234" width="18" height="18" rx="3" fill="#080a0a"/><rect x="432" y="234" width="18" height="18" rx="3" fill="#080a0a"/><rect x="468" y="234" width="18" height="18" rx="3" fill="#080a0a"/><rect x="72" y="252" width="18" height="18" rx="3" fill="#080a0a"/><rect x="90" y="252" width="18" height="18" rx="3" fill="#080a0a"/><rect x="108" y="252" width="18" height="18" rx="3" fill="#080a0a"/><rect x="144" y="252" width="18" height="18" rx="3" fill="#080a0a"/><rect x="180" y="252" width="18" height="18" rx="3" fill="#080a0a"/><rect x="198" y="252" width="18" height="18" rx="3" fill="#080a0a"/><rect x="216" y="252" width="18" height="18" rx="3" fill="#080a0a"/><rect x="252" y="252" width="18" height="18" rx="3" fill="#080a0a"/><rect x="270" y="252" width="18" height="18" rx="3" fill="#080a0a"/><rect x="288" y="252" width="18" height="18" rx="3" fill="#080a0a"/><rect x="324" y="252" width="18" height="18" rx="3" fill="#080a0a"/><rect x="360" y="252" width="18" height="18" rx="3" fill="#080a0a"/><rect x="378" y="252" width="18" height="18" rx="3" fill="#080a0a"/><rect x="396" y="252" width="18" height="18" rx="3" fill="#080a0a"/><rect x="432" y="252" width="18" height="18" rx="3" fill="#080a0a"/><rect x="450" y="252" width="18" height="18" rx="3" fill="#080a0a"/><rect x="468" y="252" width="18" height="18" rx="3" fill="#080a0a"/><rect x="90" y="270" width="18" height="18" rx="3" fill="#080a0a"/><rect x="162" y="270" width="18" height="18" rx="3" fill="#080a0a"/><rect x="216" y="270" width="18" height="18" rx="3" fill="#080a0a"/><rect x="288" y="270" width="18" height="18" rx="3" fill="#080a0a"/><rect x="342" y="270" width="18" height="18" rx="3" fill="#080a0a"/><rect x="396" y="270" width="18" height="18" rx="3" fill="#080a0a"/><rect x="450" y="270" width="18" height="18" rx="3" fill="#080a0a"/><rect x="72" y="288" width="18" height="18" rx="3" fill="#080a0a"/><rect x="90" y="288" width="18" height="18" rx="3" fill="#080a0a"/><rect x="108" y="288" width="18" height="18" rx="3" fill="#080a0a"/><rect x="144" y="288" width="18" height="18" rx="3" fill="#080a0a"/><rect x="162" y="288" width="18" height="18" rx="3" fill="#080a0a"/><rect x="180" y="288" width="18" height="18" rx="3" fill="#080a0a"/><rect x="216" y="288" width="18" height="18" rx="3" fill="#080a0a"/><rect x="234" y="288" width="18" height="18" rx="3" fill="#080a0a"/><rect x="252" y="288" width="18" height="18" rx="3" fill="#080a0a"/><rect x="288" y="288" width="18" height="18" rx="3" fill="#080a0a"/><rect x="306" y="288" width="18" height="18" rx="3" fill="#080a0a"/><rect x="324" y="288" width="18" height="18" rx="3" fill="#080a0a"/><rect x="360" y="288" width="18" height="18" rx="3" fill="#080a0a"/><rect x="378" y="288" width="18" height="18" rx="3" fill="#080a0a"/><rect x="396" y="288" width="18" height="18" rx="3" fill="#080a0a"/><rect x="432" y="288" width="18" height="18" rx="3" fill="#080a0a"/><rect x="450" y="288" width="18" height="18" rx="3" fill="#080a0a"/><rect x="468" y="288" width="18" height="18" rx="3" fill="#080a0a"/><rect x="108" y="306" width="18" height="18" rx="3" fill="#080a0a"/><rect x="180" y="306" width="18" height="18" rx="3" fill="#080a0a"/><rect x="252" y="306" width="18" height="18" rx="3" fill="#080a0a"/><rect x="324" y="306" width="18" height="18" rx="3" fill="#080a0a"/><rect x="396" y="306" width="18" height="18" rx="3" fill="#080a0a"/><rect x="72" y="324" width="18" height="18" rx="3" fill="#080a0a"/><rect x="90" y="324" width="18" height="18" rx="3" fill="#080a0a"/><rect x="108" y="324" width="18" height="18" rx="3" fill="#080a0a"/><rect x="126" y="324" width="18" height="18" rx="3" fill="#080a0a"/><rect x="144" y="324" width="18" height="18" rx="3" fill="#080a0a"/><rect x="162" y="324" width="18" height="18" rx="3" fill="#080a0a"/><rect x="180" y="324" width="18" height="18" rx="3" fill="#080a0a"/><rect x="216" y="324" width="18" height="18" rx="3" fill="#080a0a"/><rect x="252" y="324" width="18" height="18" rx="3" fill="#080a0a"/><rect x="288" y="324" width="18" height="18" rx="3" fill="#080a0a"/><rect x="324" y="324" width="18" height="18" rx="3" fill="#080a0a"/><rect x="342" y="324" width="18" height="18" rx="3" fill="#080a0a"/><rect x="360" y="324" width="18" height="18" rx="3" fill="#080a0a"/><rect x="378" y="324" width="18" height="18" rx="3" fill="#080a0a"/><rect x="432" y="324" width="18" height="18" rx="3" fill="#080a0a"/><rect x="450" y="324" width="18" height="18" rx="3" fill="#080a0a"/><rect x="468" y="324" width="18" height="18" rx="3" fill="#080a0a"/><rect x="72" y="342" width="18" height="18" rx="3" fill="#080a0a"/><rect x="180" y="342" width="18" height="18" rx="3" fill="#080a0a"/><rect x="216" y="342" width="18" height="18" rx="3" fill="#080a0a"/><rect x="234" y="342" width="18" height="18" rx="3" fill="#080a0a"/><rect x="270" y="342" width="18" height="18" rx="3" fill="#080a0a"/><rect x="324" y="342" width="18" height="18" rx="3" fill="#080a0a"/><rect x="378" y="342" width="18" height="18" rx="3" fill="#080a0a"/><rect x="396" y="342" width="18" height="18" rx="3" fill="#080a0a"/><rect x="432" y="342" width="18" height="18" rx="3" fill="#080a0a"/><rect x="72" y="360" width="18" height="18" rx="3" fill="#080a0a"/><rect x="108" y="360" width="18" height="18" rx="3" fill="#080a0a"/><rect x="126" y="360" width="18" height="18" rx="3" fill="#080a0a"/><rect x="144" y="360" width="18" height="18" rx="3" fill="#080a0a"/><rect x="180" y="360" width="18" height="18" rx="3" fill="#080a0a"/><rect x="216" y="360" width="18" height="18" rx="3" fill="#080a0a"/><rect x="252" y="360" width="18" height="18" rx="3" fill="#080a0a"/><rect x="270" y="360" width="18" height="18" rx="3" fill="#080a0a"/><rect x="288" y="360" width="18" height="18" rx="3" fill="#080a0a"/><rect x="324" y="360" width="18" height="18" rx="3" fill="#080a0a"/><rect x="360" y="360" width="18" height="18" rx="3" fill="#080a0a"/><rect x="396" y="360" width="18" height="18" rx="3" fill="#080a0a"/><rect x="414" y="360" width="18" height="18" rx="3" fill="#080a0a"/><rect x="432" y="360" width="18" height="18" rx="3" fill="#080a0a"/><rect x="468" y="360" width="18" height="18" rx="3" fill="#080a0a"/><rect x="72" y="378" width="18" height="18" rx="3" fill="#080a0a"/><rect x="108" y="378" width="18" height="18" rx="3" fill="#080a0a"/><rect x="126" y="378" width="18" height="18" rx="3" fill="#080a0a"/><rect x="144" y="378" width="18" height="18" rx="3" fill="#080a0a"/><rect x="180" y="378" width="18" height="18" rx="3" fill="#080a0a"/><rect x="252" y="378" width="18" height="18" rx="3" fill="#080a0a"/><rect x="324" y="378" width="18" height="18" rx="3" fill="#080a0a"/><rect x="360" y="378" width="18" height="18" rx="3" fill="#080a0a"/><rect x="396" y="378" width="18" height="18" rx="3" fill="#080a0a"/><rect x="432" y="378" width="18" height="18" rx="3" fill="#080a0a"/><rect x="468" y="378" width="18" height="18" rx="3" fill="#080a0a"/><rect x="72" y="396" width="18" height="18" rx="3" fill="#080a0a"/><rect x="108" y="396" width="18" height="18" rx="3" fill="#080a0a"/><rect x="126" y="396" width="18" height="18" rx="3" fill="#080a0a"/><rect x="144" y="396" width="18" height="18" rx="3" fill="#080a0a"/><rect x="180" y="396" width="18" height="18" rx="3" fill="#080a0a"/><rect x="216" y="396" width="18" height="18" rx="3" fill="#080a0a"/><rect x="234" y="396" width="18" height="18" rx="3" fill="#080a0a"/><rect x="252" y="396" width="18" height="18" rx="3" fill="#080a0a"/><rect x="270" y="396" width="18" height="18" rx="3" fill="#080a0a"/><rect x="288" y="396" width="18" height="18" rx="3" fill="#080a0a"/><rect x="324" y="396" width="18" height="18" rx="3" fill="#080a0a"/><rect x="360" y="396" width="18" height="18" rx="3" fill="#080a0a"/><rect x="396" y="396" width="18" height="18" rx="3" fill="#080a0a"/><rect x="414" y="396" width="18" height="18" rx="3" fill="#080a0a"/><rect x="432" y="396" width="18" height="18" rx="3" fill="#080a0a"/><rect x="468" y="396" width="18" height="18" rx="3" fill="#080a0a"/><rect x="72" y="414" width="18" height="18" rx="3" fill="#080a0a"/><rect x="180" y="414" width="18" height="18" rx="3" fill="#080a0a"/><rect x="270" y="414" width="18" height="18" rx="3" fill="#080a0a"/><rect x="324" y="414" width="18" height="18" rx="3" fill="#080a0a"/><rect x="468" y="414" width="18" height="18" rx="3" fill="#080a0a"/><rect x="72" y="432" width="18" height="18" rx="3" fill="#080a0a"/><rect x="90" y="432" width="18" height="18" rx="3" fill="#080a0a"/><rect x="108" y="432" width="18" height="18" rx="3" fill="#080a0a"/><rect x="126" y="432" width="18" height="18" rx="3" fill="#080a0a"/><rect x="144" y="432" width="18" height="18" rx="3" fill="#080a0a"/><rect x="162" y="432" width="18" height="18" rx="3" fill="#080a0a"/><rect x="180" y="432" width="18" height="18" rx="3" fill="#080a0a"/><rect x="216" y="432" width="18" height="18" rx="3" fill="#080a0a"/><rect x="234" y="432" width="18" height="18" rx="3" fill="#080a0a"/><rect x="270" y="432" width="18" height="18" rx="3" fill="#080a0a"/><rect x="288" y="432" width="18" height="18" rx="3" fill="#080a0a"/><rect x="324" y="432" width="18" height="18" rx="3" fill="#080a0a"/><rect x="360" y="432" width="18" height="18" rx="3" fill="#080a0a"/><rect x="378" y="432" width="18" height="18" rx="3" fill="#080a0a"/><rect x="396" y="432" width="18" height="18" rx="3" fill="#080a0a"/><rect x="414" y="432" width="18" height="18" rx="3" fill="#080a0a"/><rect x="432" y="432" width="18" height="18" rx="3" fill="#080a0a"/><rect x="450" y="432" width="18" height="18" rx="3" fill="#080a0a"/><rect x="468" y="432" width="18" height="18" rx="3" fill="#080a0a"/>
</svg>
